<svg width="31" height="36" viewBox="0 0 31 36" fill="none" xmlns="http://www.w3.org/2000/svg">
<g clip-path="url(#clip0_501_1427)">
<path d="M25.2469 19.1404C25.1973 14.595 28.9659 12.3801 29.1477 12.2809C27.0155 9.1735 23.7097 8.74375 22.5527 8.71069C19.7758 8.41317 17.0816 10.3636 15.6766 10.3636C14.2717 10.3636 12.0568 8.72722 9.70969 8.7768C6.68489 8.82639 3.85845 10.5785 2.32126 13.2892C-0.868825 18.8264 1.51134 26.9586 4.56919 31.438C6.10638 33.6363 7.89151 36.0826 10.2386 35.9834C12.5361 35.8842 13.3956 34.5289 16.156 34.5289C18.9163 34.5289 19.6932 35.9834 22.0899 35.9338C24.5527 35.9008 26.1064 33.7355 27.5775 31.5206C29.346 29.0082 30.0568 26.5289 30.0899 26.4132C30.0403 26.3966 25.313 24.595 25.2634 19.1404H25.2469Z" fill="white"/>
<path d="M20.7349 5.76859C21.9745 4.2314 22.8175 2.13223 22.5696 0C20.7845 0.0826446 18.5531 1.23967 17.2638 2.7438C16.1233 4.06612 15.115 6.24793 15.3795 8.29752C17.3795 8.44628 19.4456 7.28926 20.7349 5.76859Z" fill="white"/>
</g>
<defs>
<clipPath id="clip0_501_1427">
<rect width="29.2893" height="36" fill="white" transform="translate(0.78418)"/>
</clipPath>
</defs>
</svg>
