<svg width="33" height="36" viewBox="0 0 33 36" fill="none" xmlns="http://www.w3.org/2000/svg">
<g clip-path="url(#clip0_501_253)">
<path d="M21.4788 25.9846L4.7876 35.5661C4.31619 35.8438 3.77495 36 3.19879 36C2.01154 36 0.946517 35.3404 0.405273 34.2816L15.1236 19.6664L21.4788 25.9846Z" fill="white"/>
<path d="M32.2165 18.0347C32.2165 19.1803 31.5705 20.2391 30.5404 20.7945L23.5915 24.7695L16.7998 17.9999L23.5741 11.2651L30.4706 15.2227L30.5753 15.3095C31.588 15.8649 32.2165 16.9064 32.2165 18.0347Z" fill="white"/>
<path d="M13.4297 18L0.0732422 31.2787V4.72131L13.4297 18Z" fill="white"/>
<path d="M21.4614 10.0501L15.1236 16.3337L0.405273 1.71842C0.929057 0.659595 1.99408 0 3.19879 0C3.75749 0 4.31619 0.15622 4.83998 0.451302L21.4614 10.0501Z" fill="white"/>
</g>
<defs>
<clipPath id="clip0_501_253">
<rect width="32.1429" height="36" fill="white" transform="translate(0.0732422)"/>
</clipPath>
</defs>
</svg>
