<svg width="223" height="65" viewBox="0 0 223 65" fill="none" xmlns="http://www.w3.org/2000/svg">
<g clip-path="url(#clip0_403_3583)">
<path d="M60 2H0V62H60V2Z" fill="url(#paint0_linear_403_3583)"/>
<path d="M30.0002 8.80701H42.9392C44.1302 8.80701 45.1502 9.66801 45.3482 10.844L48.5582 29.837H29.7842L30.0032 8.80701H30.0002Z" fill="url(#paint1_linear_403_3583)"/>
<path d="M51.9271 49.793L48.5551 29.834L45.3451 10.841C45.1471 9.66495 44.1271 8.80396 42.9361 8.80396H17.0611C15.8701 8.80396 14.8501 9.66495 14.6521 10.841L11.4421 29.834L8.07007 49.793C7.78807 51.47 9.07807 52.997 10.7791 52.997H49.2181C50.9191 52.997 52.2091 51.47 51.9271 49.793Z" fill="url(#paint2_linear_403_3583)"/>
<path d="M44.7539 10.943C44.6039 10.052 43.8389 9.40698 42.9359 9.40698H17.0609C16.1579 9.40698 15.3929 10.052 15.2429 10.943L12.2549 28.637H47.7449L44.7569 10.943H44.7539Z" fill="url(#paint3_linear_403_3583)"/>
<g style="mix-blend-mode:multiply">
<path d="M43.0981 19.583H16.9021C16.6531 19.583 16.4521 19.382 16.4521 19.133C16.4521 18.884 16.6531 18.683 16.9021 18.683H43.0951C43.3441 18.683 43.5451 18.884 43.5451 19.133C43.5451 19.382 43.3441 19.583 43.0951 19.583H43.0981Z" fill="url(#paint4_linear_403_3583)"/>
<path d="M42.528 16.2201H17.472C17.223 16.2201 17.022 16.0191 17.022 15.7701C17.022 15.5211 17.223 15.3201 17.472 15.3201H42.528C42.777 15.3201 42.978 15.5211 42.978 15.7701C42.978 16.0191 42.777 16.2201 42.528 16.2201Z" fill="url(#paint5_linear_403_3583)"/>
<path d="M41.9614 12.857H18.0394C17.7904 12.857 17.5894 12.656 17.5894 12.407C17.5894 12.158 17.7904 11.957 18.0394 11.957H41.9614C42.2104 11.957 42.4114 12.158 42.4114 12.407C42.4114 12.656 42.2104 12.857 41.9614 12.857Z" fill="url(#paint6_linear_403_3583)"/>
</g>
<path d="M3.225 22.598H56.775C58.554 22.598 60 24.044 60 25.823V62H0V25.823C0 24.044 1.446 22.598 3.225 22.598Z" fill="url(#paint7_linear_403_3583)"/>
<path d="M58.7998 25.823V62H1.19981V25.823C1.19981 24.704 2.10881 23.798 3.22481 23.798L56.7748 23.798C57.8938 23.798 58.7998 24.707 58.7998 25.823Z" fill="url(#paint8_linear_403_3583)"/>
<path d="M5.78418 28.637L5.78418 36.827H54.2162V28.637L5.78418 28.637Z" fill="url(#paint9_linear_403_3583)"/>
<path d="M53.0159 29.837H6.98389V35.627H53.0159V29.837Z" fill="url(#paint10_linear_403_3583)"/>
<path d="M11.445 29.837L8.073 49.796C7.791 51.473 9.081 53 10.782 53H30.462L30.222 29.837H11.448H11.445Z" fill="url(#paint11_linear_403_3583)"/>
<path d="M48.5551 29.837L51.9271 49.796C52.2091 51.473 50.9191 53 49.2181 53H29.5381L29.7781 29.837H48.5521H48.5551Z" fill="url(#paint12_linear_403_3583)"/>
<path d="M47.9488 29.837H12.0508L8.6608 49.895C8.5558 50.519 8.7298 51.155 9.1378 51.638C9.5458 52.121 10.1428 52.4 10.7758 52.4H49.2148C49.8478 52.4 50.4448 52.124 50.8528 51.638C51.2608 51.155 51.4348 50.519 51.3298 49.895L47.9398 29.837H47.9488Z" fill="url(#paint13_linear_403_3583)"/>
<g style="mix-blend-mode:multiply">
<path d="M48.2098 49.847H11.7898C11.5408 49.847 11.3398 49.646 11.3398 49.397C11.3398 49.148 11.5408 48.947 11.7898 48.947H48.2098C48.4588 48.947 48.6598 49.148 48.6598 49.397C48.6598 49.646 48.4588 49.847 48.2098 49.847Z" fill="url(#paint14_linear_403_3583)"/>
<path d="M47.6427 46.487H12.3567C12.1077 46.487 11.9067 46.286 11.9067 46.037C11.9067 45.788 12.1077 45.587 12.3567 45.587H47.6397C47.8887 45.587 48.0897 45.788 48.0897 46.037C48.0897 46.286 47.8887 46.487 47.6397 46.487H47.6427Z" fill="url(#paint15_linear_403_3583)"/>
</g>
<g style="mix-blend-mode:multiply">
<path d="M16.1282 38.231L15.2972 42.656H13.7642L15.7772 32.918H24.3842L24.2882 34.055H16.9142L16.3682 36.956H22.6622L22.5302 38.228H16.1282V38.231Z" fill="url(#paint16_linear_403_3583)"/>
<path d="M32.3044 40.007H26.0404L24.3394 42.656H22.6504L29.2894 32.765L35.6224 42.656H33.9154L32.3044 40.007ZM26.8924 38.657H31.4764L29.2534 34.988L26.8924 38.657Z" fill="url(#paint17_linear_403_3583)"/>
<path d="M45.2222 42.656L40.8331 38.3L37.6112 42.656H35.7121L39.8312 37.406L35.2021 32.918H36.8851L40.5902 36.53L43.3142 32.918H44.9972L41.5712 37.406L47.1511 42.656H45.2191H45.2222Z" fill="url(#paint18_linear_403_3583)"/>
</g>
</g>
<path d="M74.7812 11H83.125L91.9375 32.5H92.3125L101.125 11H109.469V43H102.906V22.1719H102.641L94.3594 42.8437H89.8906L81.6094 22.0937H81.3438V43H74.7812V11ZM119.027 52C118.184 52 117.392 51.9323 116.652 51.7969C115.923 51.6719 115.319 51.5104 114.84 51.3125L116.34 46.3438C117.121 46.5833 117.824 46.7135 118.449 46.7344C119.085 46.7552 119.632 46.6094 120.09 46.2969C120.559 45.9844 120.939 45.4531 121.23 44.7031L121.621 43.6875L113.012 19H120.012L124.98 36.625H125.23L130.246 19H137.293L127.965 45.5938C127.517 46.8854 126.908 48.0104 126.137 48.9687C125.376 49.9375 124.413 50.6823 123.246 51.2031C122.079 51.7344 120.673 52 119.027 52ZM140.824 43V11H162.012V16.5781H147.59V24.2031H160.605V29.7812H147.59V43H140.824ZM172.98 43.4531C171.449 43.4531 170.085 43.1875 168.887 42.6562C167.689 42.1146 166.741 41.3177 166.043 40.2656C165.355 39.2031 165.012 37.8802 165.012 36.2969C165.012 34.9635 165.257 33.8437 165.746 32.9375C166.236 32.0313 166.902 31.3021 167.746 30.75C168.59 30.1979 169.548 29.7812 170.621 29.5C171.704 29.2187 172.84 29.0208 174.027 28.9062C175.423 28.7604 176.548 28.625 177.402 28.5C178.257 28.3646 178.876 28.1667 179.262 27.9062C179.647 27.6458 179.84 27.2604 179.84 26.75V26.6562C179.84 25.6667 179.527 24.901 178.902 24.3594C178.288 23.8177 177.413 23.5469 176.277 23.5469C175.079 23.5469 174.126 23.8125 173.418 24.3437C172.71 24.8646 172.241 25.5208 172.012 26.3125L165.855 25.8125C166.168 24.3542 166.783 23.0937 167.699 22.0312C168.616 20.9583 169.798 20.1354 171.246 19.5625C172.704 18.9792 174.392 18.6875 176.309 18.6875C177.642 18.6875 178.918 18.8437 180.137 19.1562C181.366 19.4687 182.454 19.9531 183.402 20.6094C184.361 21.2656 185.116 22.1094 185.668 23.1406C186.22 24.1615 186.496 25.3854 186.496 26.8125V43H180.184V39.6719H179.996C179.611 40.4219 179.095 41.0833 178.449 41.6562C177.803 42.2187 177.027 42.6615 176.121 42.9844C175.215 43.2969 174.168 43.4531 172.98 43.4531ZM174.887 38.8594C175.866 38.8594 176.73 38.6667 177.48 38.2812C178.23 37.8854 178.819 37.3542 179.246 36.6875C179.673 36.0208 179.887 35.2656 179.887 34.4219V31.875C179.678 32.0104 179.392 32.1354 179.027 32.25C178.673 32.3542 178.272 32.4531 177.824 32.5469C177.376 32.6302 176.928 32.7083 176.48 32.7812C176.033 32.8437 175.626 32.901 175.262 32.9531C174.48 33.0677 173.798 33.25 173.215 33.5C172.632 33.75 172.178 34.0885 171.855 34.5156C171.533 34.9323 171.371 35.4531 171.371 36.0781C171.371 36.9844 171.699 37.6771 172.355 38.1562C173.022 38.625 173.866 38.8594 174.887 38.8594ZM197.223 19L201.629 27.3906L206.145 19H212.973L206.02 31L213.16 43H206.363L201.629 34.7031L196.973 43H190.098L197.223 31L190.348 19H197.223Z" fill="#0F1537"/>
<path d="M72.2855 53.2727H73.7812L76.0611 57.2401H76.1548L78.4347 53.2727H79.9304L76.7642 58.5739V62H75.4517V58.5739L72.2855 53.2727ZM82.7504 62.1321C82.1367 62.1321 81.6012 61.9915 81.1438 61.7102C80.6864 61.429 80.3313 61.0355 80.0785 60.5298C79.8256 60.0241 79.6992 59.4332 79.6992 58.7571C79.6992 58.0781 79.8256 57.4844 80.0785 56.9759C80.3313 56.4673 80.6864 56.0724 81.1438 55.7912C81.6012 55.5099 82.1367 55.3693 82.7504 55.3693C83.364 55.3693 83.8995 55.5099 84.3569 55.7912C84.8143 56.0724 85.1694 56.4673 85.4222 56.9759C85.6751 57.4844 85.8015 58.0781 85.8015 58.7571C85.8015 59.4332 85.6751 60.0241 85.4222 60.5298C85.1694 61.0355 84.8143 61.429 84.3569 61.7102C83.8995 61.9915 83.364 62.1321 82.7504 62.1321ZM82.7546 61.0625C83.1523 61.0625 83.4819 60.9574 83.7433 60.7472C84.0046 60.5369 84.1978 60.2571 84.3228 59.9077C84.4506 59.5582 84.5146 59.1733 84.5146 58.7528C84.5146 58.3352 84.4506 57.9517 84.3228 57.6023C84.1978 57.25 84.0046 56.9673 83.7433 56.7543C83.4819 56.5412 83.1523 56.4347 82.7546 56.4347C82.354 56.4347 82.0217 56.5412 81.7575 56.7543C81.4961 56.9673 81.3015 57.25 81.1737 57.6023C81.0487 57.9517 80.9862 58.3352 80.9862 58.7528C80.9862 59.1733 81.0487 59.5582 81.1737 59.9077C81.3015 60.2571 81.4961 60.5369 81.7575 60.7472C82.0217 60.9574 82.354 61.0625 82.7546 61.0625ZM91.37 59.2855V55.4545H92.6484V62H91.3956V60.8665H91.3274C91.1768 61.2159 90.9354 61.5071 90.603 61.7401C90.2734 61.9702 89.8629 62.0852 89.3714 62.0852C88.951 62.0852 88.5788 61.9929 88.255 61.8082C87.9339 61.6207 87.6811 61.3438 87.4964 60.9773C87.3146 60.6108 87.2237 60.1577 87.2237 59.6179V55.4545H88.4979V59.4645C88.4979 59.9105 88.6214 60.2656 88.8686 60.5298C89.1158 60.794 89.4368 60.9261 89.8317 60.9261C90.0703 60.9261 90.3075 60.8665 90.5433 60.7472C90.782 60.6278 90.9794 60.4474 91.1357 60.206C91.2947 59.9645 91.3729 59.6577 91.37 59.2855ZM94.3604 62V55.4545H95.592V56.4943H95.6602C95.7795 56.142 95.9897 55.8651 96.2908 55.6634C96.5948 55.4588 96.9386 55.3565 97.3221 55.3565C97.4016 55.3565 97.4954 55.3594 97.6033 55.3651C97.7141 55.3707 97.8008 55.3778 97.8633 55.3864V56.6051C97.8121 56.5909 97.7212 56.5753 97.5906 56.5582C97.4599 56.5384 97.3292 56.5284 97.1985 56.5284C96.8974 56.5284 96.6289 56.5923 96.3931 56.7202C96.1602 56.8452 95.9755 57.0199 95.8391 57.2443C95.7028 57.4659 95.6346 57.7187 95.6346 58.0028V62H94.3604ZM102.142 64.4545V55.4545H103.386V56.5156H103.493C103.566 56.3793 103.673 56.2216 103.812 56.0426C103.951 55.8636 104.145 55.7074 104.392 55.5739C104.639 55.4375 104.966 55.3693 105.372 55.3693C105.9 55.3693 106.372 55.5028 106.787 55.7699C107.201 56.0369 107.527 56.4219 107.762 56.9247C108.001 57.4276 108.12 58.0327 108.12 58.7401C108.12 59.4474 108.002 60.054 107.767 60.5597C107.531 61.0625 107.207 61.4503 106.795 61.723C106.383 61.9929 105.913 62.1278 105.385 62.1278C104.987 62.1278 104.662 62.0611 104.409 61.9276C104.159 61.794 103.963 61.6378 103.821 61.4588C103.679 61.2798 103.569 61.1207 103.493 60.9815H103.416V64.4545H102.142ZM103.39 58.7273C103.39 59.1875 103.457 59.5909 103.591 59.9375C103.724 60.2841 103.917 60.5554 104.17 60.7514C104.423 60.9446 104.733 61.0412 105.099 61.0412C105.48 61.0412 105.798 60.9403 106.054 60.7386C106.309 60.5341 106.502 60.2571 106.633 59.9077C106.767 59.5582 106.833 59.1648 106.833 58.7273C106.833 58.2955 106.768 57.9077 106.637 57.5639C106.51 57.2202 106.316 56.9489 106.058 56.75C105.802 56.5511 105.483 56.4517 105.099 56.4517C104.73 56.4517 104.417 56.5469 104.162 56.7372C103.909 56.9276 103.717 57.1932 103.586 57.5341C103.456 57.875 103.39 58.2727 103.39 58.7273ZM112.305 62.1321C111.691 62.1321 111.156 61.9915 110.699 61.7102C110.241 61.429 109.886 61.0355 109.633 60.5298C109.38 60.0241 109.254 59.4332 109.254 58.7571C109.254 58.0781 109.38 57.4844 109.633 56.9759C109.886 56.4673 110.241 56.0724 110.699 55.7912C111.156 55.5099 111.691 55.3693 112.305 55.3693C112.919 55.3693 113.454 55.5099 113.912 55.7912C114.369 56.0724 114.724 56.4673 114.977 56.9759C115.23 57.4844 115.356 58.0781 115.356 58.7571C115.356 59.4332 115.23 60.0241 114.977 60.5298C114.724 61.0355 114.369 61.429 113.912 61.7102C113.454 61.9915 112.919 62.1321 112.305 62.1321ZM112.309 61.0625C112.707 61.0625 113.037 60.9574 113.298 60.7472C113.559 60.5369 113.752 60.2571 113.877 59.9077C114.005 59.5582 114.069 59.1733 114.069 58.7528C114.069 58.3352 114.005 57.9517 113.877 57.6023C113.752 57.25 113.559 56.9673 113.298 56.7543C113.037 56.5412 112.707 56.4347 112.309 56.4347C111.909 56.4347 111.576 56.5412 111.312 56.7543C111.051 56.9673 110.856 57.25 110.728 57.6023C110.603 57.9517 110.541 58.3352 110.541 58.7528C110.541 59.1733 110.603 59.5582 110.728 59.9077C110.856 60.2571 111.051 60.5369 111.312 60.7472C111.576 60.9574 111.909 61.0625 112.309 61.0625ZM116.778 62V55.4545H118.01V56.4943H118.078C118.197 56.142 118.408 55.8651 118.709 55.6634C119.013 55.4588 119.357 55.3565 119.74 55.3565C119.82 55.3565 119.913 55.3594 120.021 55.3651C120.132 55.3707 120.219 55.3778 120.281 55.3864V56.6051C120.23 56.5909 120.139 56.5753 120.009 56.5582C119.878 56.5384 119.747 56.5284 119.616 56.5284C119.315 56.5284 119.047 56.5923 118.811 56.7202C118.578 56.8452 118.393 57.0199 118.257 57.2443C118.121 57.4659 118.053 57.7187 118.053 58.0028V62H116.778ZM124.826 55.4545V56.4773H121.251V55.4545H124.826ZM122.21 53.8864H123.484V60.0781C123.484 60.3253 123.521 60.5114 123.594 60.6364C123.668 60.7585 123.763 60.8423 123.88 60.8878C123.999 60.9304 124.129 60.9517 124.268 60.9517C124.37 60.9517 124.46 60.9446 124.536 60.9304C124.613 60.9162 124.673 60.9048 124.715 60.8963L124.945 61.9489C124.871 61.9773 124.766 62.0057 124.63 62.0341C124.494 62.0653 124.323 62.0824 124.119 62.0852C123.783 62.0909 123.471 62.0312 123.181 61.9062C122.891 61.7812 122.657 61.5881 122.478 61.3267C122.299 61.0653 122.21 60.7372 122.21 60.3423V53.8864ZM128.14 62.1449C127.725 62.1449 127.35 62.0682 127.015 61.9148C126.68 61.7585 126.414 61.5327 126.218 61.2372C126.025 60.9418 125.929 60.5795 125.929 60.1506C125.929 59.7812 126 59.4773 126.142 59.2386C126.284 59 126.475 58.8111 126.717 58.6719C126.958 58.5327 127.228 58.4276 127.527 58.3565C127.825 58.2855 128.129 58.2315 128.439 58.1946C128.831 58.1491 129.149 58.1122 129.393 58.0838C129.637 58.0526 129.815 58.0028 129.926 57.9347C130.037 57.8665 130.092 57.7557 130.092 57.6023V57.5724C130.092 57.2003 129.987 56.9119 129.777 56.7074C129.569 56.5028 129.26 56.4006 128.848 56.4006C128.419 56.4006 128.081 56.4957 127.833 56.6861C127.589 56.8736 127.42 57.0824 127.326 57.3125L126.129 57.0398C126.271 56.642 126.478 56.321 126.751 56.0767C127.027 55.8295 127.343 55.6506 127.701 55.5398C128.059 55.4261 128.436 55.3693 128.831 55.3693C129.092 55.3693 129.369 55.4006 129.662 55.4631C129.957 55.5227 130.233 55.6335 130.488 55.7955C130.747 55.9574 130.958 56.1889 131.123 56.4901C131.288 56.7884 131.37 57.1761 131.37 57.6534V62H130.126V61.1051H130.075C129.993 61.2699 129.869 61.4318 129.704 61.5909C129.539 61.75 129.328 61.8821 129.069 61.9872C128.811 62.0923 128.501 62.1449 128.14 62.1449ZM128.417 61.1222C128.77 61.1222 129.071 61.0526 129.321 60.9134C129.574 60.7741 129.765 60.5923 129.896 60.3679C130.029 60.1406 130.096 59.8977 130.096 59.6392V58.7955C130.051 58.8409 129.963 58.8835 129.832 58.9233C129.704 58.9602 129.558 58.9929 129.393 59.0213C129.228 59.0469 129.068 59.071 128.912 59.0938C128.755 59.1136 128.625 59.1307 128.52 59.1449C128.272 59.1761 128.047 59.2287 127.842 59.3026C127.64 59.3764 127.478 59.483 127.356 59.6222C127.237 59.7585 127.177 59.9403 127.177 60.1676C127.177 60.483 127.294 60.7216 127.527 60.8835C127.76 61.0426 128.056 61.1222 128.417 61.1222ZM133.17 62V53.2727H134.444V56.5156H134.521C134.594 56.3793 134.701 56.2216 134.84 56.0426C134.979 55.8636 135.173 55.7074 135.42 55.5739C135.667 55.4375 135.994 55.3693 136.4 55.3693C136.928 55.3693 137.4 55.5028 137.815 55.7699C138.229 56.0369 138.555 56.4219 138.79 56.9247C139.029 57.4276 139.148 58.0327 139.148 58.7401C139.148 59.4474 139.031 60.054 138.795 60.5597C138.559 61.0625 138.235 61.4503 137.823 61.723C137.411 61.9929 136.941 62.1278 136.413 62.1278C136.015 62.1278 135.69 62.0611 135.437 61.9276C135.187 61.794 134.991 61.6378 134.849 61.4588C134.707 61.2798 134.597 61.1207 134.521 60.9815H134.414V62H133.17ZM134.418 58.7273C134.418 59.1875 134.485 59.5909 134.619 59.9375C134.752 60.2841 134.945 60.5554 135.198 60.7514C135.451 60.9446 135.761 61.0412 136.127 61.0412C136.508 61.0412 136.826 60.9403 137.082 60.7386C137.337 60.5341 137.531 60.2571 137.661 59.9077C137.795 59.5582 137.862 59.1648 137.862 58.7273C137.862 58.2955 137.796 57.9077 137.665 57.5639C137.538 57.2202 137.344 56.9489 137.086 56.75C136.83 56.5511 136.511 56.4517 136.127 56.4517C135.758 56.4517 135.445 56.5469 135.19 56.7372C134.937 56.9276 134.745 57.1932 134.614 57.5341C134.484 57.875 134.418 58.2727 134.418 58.7273ZM141.853 53.2727V62H140.579V53.2727H141.853ZM146.388 62.1321C145.744 62.1321 145.188 61.9943 144.722 61.7188C144.259 61.4403 143.901 61.0497 143.648 60.5469C143.398 60.0412 143.273 59.4489 143.273 58.7699C143.273 58.0994 143.398 57.5085 143.648 56.9972C143.901 56.4858 144.254 56.0866 144.705 55.7997C145.16 55.5128 145.691 55.3693 146.299 55.3693C146.668 55.3693 147.026 55.4304 147.373 55.5526C147.719 55.6747 148.031 55.8665 148.306 56.1278C148.582 56.3892 148.799 56.7287 148.958 57.1463C149.117 57.5611 149.197 58.0653 149.197 58.6591V59.1108H143.994V58.1562H147.948C147.948 57.821 147.88 57.5241 147.744 57.2656C147.607 57.0043 147.415 56.7983 147.168 56.6477C146.924 56.4972 146.637 56.4219 146.308 56.4219C145.95 56.4219 145.637 56.5099 145.37 56.6861C145.106 56.8594 144.901 57.0866 144.756 57.3679C144.614 57.6463 144.543 57.9489 144.543 58.2756V59.0213C144.543 59.4588 144.62 59.831 144.773 60.1378C144.93 60.4446 145.147 60.679 145.425 60.8409C145.704 61 146.029 61.0795 146.401 61.0795C146.643 61.0795 146.863 61.0455 147.062 60.9773C147.261 60.9062 147.433 60.8011 147.577 60.6619C147.722 60.5227 147.833 60.3509 147.91 60.1463L149.116 60.3636C149.019 60.7187 148.846 61.0298 148.596 61.2969C148.349 61.5611 148.038 61.767 147.663 61.9148C147.29 62.0597 146.866 62.1321 146.388 62.1321ZM156.901 55.4545V56.4773H153.202V55.4545H156.901ZM154.217 62V54.696C154.217 54.2869 154.306 53.9474 154.485 53.6776C154.664 53.4048 154.901 53.2017 155.197 53.0682C155.492 52.9318 155.813 52.8636 156.16 52.8636C156.415 52.8636 156.634 52.8849 156.816 52.9276C156.998 52.9673 157.133 53.0043 157.221 53.0384L156.923 54.0696C156.863 54.0526 156.786 54.0327 156.692 54.0099C156.599 53.9844 156.485 53.9716 156.352 53.9716C156.042 53.9716 155.82 54.0483 155.687 54.2017C155.556 54.3551 155.491 54.5767 155.491 54.8665V62H154.217ZM159.922 62.1449C159.507 62.1449 159.132 62.0682 158.797 61.9148C158.461 61.7585 158.196 61.5327 158 61.2372C157.806 60.9418 157.71 60.5795 157.71 60.1506C157.71 59.7812 157.781 59.4773 157.923 59.2386C158.065 59 158.257 58.8111 158.498 58.6719C158.74 58.5327 159.01 58.4276 159.308 58.3565C159.606 58.2855 159.91 58.2315 160.22 58.1946C160.612 58.1491 160.93 58.1122 161.174 58.0838C161.419 58.0526 161.596 58.0028 161.707 57.9347C161.818 57.8665 161.873 57.7557 161.873 57.6023V57.5724C161.873 57.2003 161.768 56.9119 161.558 56.7074C161.35 56.5028 161.041 56.4006 160.629 56.4006C160.2 56.4006 159.862 56.4957 159.615 56.6861C159.37 56.8736 159.201 57.0824 159.108 57.3125L157.91 57.0398C158.052 56.642 158.26 56.321 158.532 56.0767C158.808 55.8295 159.125 55.6506 159.483 55.5398C159.841 55.4261 160.217 55.3693 160.612 55.3693C160.873 55.3693 161.15 55.4006 161.443 55.4631C161.738 55.5227 162.014 55.6335 162.27 55.7955C162.528 55.9574 162.74 56.1889 162.904 56.4901C163.069 56.7884 163.152 57.1761 163.152 57.6534V62H161.907V61.1051H161.856C161.774 61.2699 161.65 61.4318 161.485 61.5909C161.321 61.75 161.109 61.8821 160.85 61.9872C160.592 62.0923 160.282 62.1449 159.922 62.1449ZM160.199 61.1222C160.551 61.1222 160.852 61.0526 161.102 60.9134C161.355 60.7741 161.547 60.5923 161.677 60.3679C161.811 60.1406 161.877 59.8977 161.877 59.6392V58.7955C161.832 58.8409 161.744 58.8835 161.613 58.9233C161.485 58.9602 161.339 58.9929 161.174 59.0213C161.01 59.0469 160.849 59.071 160.693 59.0938C160.537 59.1136 160.406 59.1307 160.301 59.1449C160.054 59.1761 159.828 59.2287 159.623 59.3026C159.422 59.3764 159.26 59.483 159.137 59.6222C159.018 59.7585 158.958 59.9403 158.958 60.1676C158.958 60.483 159.075 60.7216 159.308 60.8835C159.541 61.0426 159.838 61.1222 160.199 61.1222ZM165.854 55.4545L167.299 58.0028L168.756 55.4545H170.15L168.109 58.7273L170.167 62H168.773L167.299 59.554L165.829 62H164.431L166.468 58.7273L164.457 55.4545H165.854ZM174.634 62V55.4545H175.857V56.5199H175.938C176.074 56.1591 176.297 55.8778 176.607 55.6761C176.917 55.4716 177.287 55.3693 177.719 55.3693C178.157 55.3693 178.523 55.4716 178.819 55.6761C179.117 55.8807 179.337 56.1619 179.479 56.5199H179.547C179.703 56.1705 179.952 55.892 180.293 55.6847C180.634 55.4744 181.04 55.3693 181.512 55.3693C182.105 55.3693 182.59 55.5554 182.965 55.9276C183.343 56.2997 183.532 56.8608 183.532 57.6108V62H182.257V57.7301C182.257 57.2869 182.137 56.9659 181.895 56.767C181.654 56.5682 181.365 56.4688 181.03 56.4688C180.615 56.4688 180.293 56.5966 180.063 56.8523C179.833 57.1051 179.718 57.4304 179.718 57.8281V62H178.448V57.6491C178.448 57.294 178.337 57.0085 178.115 56.7926C177.894 56.5767 177.605 56.4688 177.25 56.4688C177.009 56.4688 176.786 56.5327 176.581 56.6605C176.38 56.7855 176.216 56.9602 176.091 57.1847C175.969 57.4091 175.908 57.669 175.908 57.9645V62H174.634ZM187.144 62.1449C186.729 62.1449 186.354 62.0682 186.019 61.9148C185.684 61.7585 185.418 61.5327 185.222 61.2372C185.029 60.9418 184.933 60.5795 184.933 60.1506C184.933 59.7812 185.004 59.4773 185.146 59.2386C185.288 59 185.479 58.8111 185.721 58.6719C185.962 58.5327 186.232 58.4276 186.531 58.3565C186.829 58.2855 187.133 58.2315 187.442 58.1946C187.835 58.1491 188.153 58.1122 188.397 58.0838C188.641 58.0526 188.819 58.0028 188.93 57.9347C189.04 57.8665 189.096 57.7557 189.096 57.6023V57.5724C189.096 57.2003 188.991 56.9119 188.781 56.7074C188.573 56.5028 188.263 56.4006 187.852 56.4006C187.423 56.4006 187.085 56.4957 186.837 56.6861C186.593 56.8736 186.424 57.0824 186.33 57.3125L185.133 57.0398C185.275 56.642 185.482 56.321 185.755 56.0767C186.031 55.8295 186.347 55.6506 186.705 55.5398C187.063 55.4261 187.44 55.3693 187.835 55.3693C188.096 55.3693 188.373 55.4006 188.665 55.4631C188.961 55.5227 189.237 55.6335 189.492 55.7955C189.751 55.9574 189.962 56.1889 190.127 56.4901C190.292 56.7884 190.374 57.1761 190.374 57.6534V62H189.13V61.1051H189.079C188.996 61.2699 188.873 61.4318 188.708 61.5909C188.543 61.75 188.332 61.8821 188.073 61.9872C187.815 62.0923 187.505 62.1449 187.144 62.1449ZM187.421 61.1222C187.773 61.1222 188.075 61.0526 188.325 60.9134C188.577 60.7741 188.769 60.5923 188.9 60.3679C189.033 60.1406 189.1 59.8977 189.1 59.6392V58.7955C189.055 58.8409 188.967 58.8835 188.836 58.9233C188.708 58.9602 188.562 58.9929 188.397 59.0213C188.232 59.0469 188.072 59.071 187.915 59.0938C187.759 59.1136 187.629 59.1307 187.523 59.1449C187.276 59.1761 187.05 59.2287 186.846 59.3026C186.644 59.3764 186.482 59.483 186.36 59.6222C186.241 59.7585 186.181 59.9403 186.181 60.1676C186.181 60.483 186.298 60.7216 186.531 60.8835C186.763 61.0426 187.06 61.1222 187.421 61.1222ZM194.828 62.1321C194.195 62.1321 193.65 61.9886 193.192 61.7017C192.738 61.4119 192.388 61.0128 192.144 60.5043C191.9 59.9957 191.777 59.4134 191.777 58.7571C191.777 58.0923 191.902 57.5057 192.152 56.9972C192.402 56.4858 192.755 56.0866 193.209 55.7997C193.664 55.5128 194.199 55.3693 194.816 55.3693C195.313 55.3693 195.756 55.4616 196.145 55.6463C196.534 55.8281 196.848 56.0838 197.087 56.4134C197.328 56.7429 197.472 57.1278 197.517 57.5682H196.277C196.209 57.2614 196.053 56.9972 195.809 56.7756C195.567 56.554 195.243 56.4432 194.837 56.4432C194.482 56.4432 194.171 56.5369 193.904 56.7244C193.64 56.9091 193.434 57.1733 193.286 57.517C193.138 57.858 193.064 58.2614 193.064 58.7273C193.064 59.2045 193.137 59.6165 193.282 59.9631C193.426 60.3097 193.631 60.5781 193.895 60.7685C194.162 60.9588 194.476 61.054 194.837 61.054C195.078 61.054 195.297 61.0099 195.493 60.9219C195.692 60.831 195.858 60.7017 195.992 60.5341C196.128 60.3665 196.223 60.1648 196.277 59.929H197.517C197.472 60.3523 197.334 60.7301 197.104 61.0625C196.874 61.3949 196.566 61.6562 196.179 61.8466C195.796 62.0369 195.346 62.1321 194.828 62.1321ZM200.154 58.1136V62H198.88V53.2727H200.137V56.5199H200.218C200.371 56.1676 200.606 55.8878 200.921 55.6804C201.237 55.473 201.648 55.3693 202.157 55.3693C202.606 55.3693 202.998 55.4616 203.333 55.6463C203.671 55.831 203.933 56.1065 204.117 56.473C204.305 56.8366 204.398 57.2912 204.398 57.8366V62H203.124V57.9901C203.124 57.5099 203.001 57.1378 202.754 56.8736C202.506 56.6065 202.163 56.473 201.722 56.473C201.421 56.473 201.151 56.5369 200.913 56.6648C200.677 56.7926 200.491 56.9801 200.354 57.2273C200.221 57.4716 200.154 57.767 200.154 58.1136ZM206.099 62V55.4545H207.373V62H206.099ZM206.742 54.4446C206.521 54.4446 206.33 54.3707 206.171 54.223C206.015 54.0724 205.937 53.8935 205.937 53.6861C205.937 53.4759 206.015 53.2969 206.171 53.1491C206.33 52.9986 206.521 52.9233 206.742 52.9233C206.964 52.9233 207.153 52.9986 207.309 53.1491C207.468 53.2969 207.548 53.4759 207.548 53.6861C207.548 53.8935 207.468 54.0724 207.309 54.223C207.153 54.3707 206.964 54.4446 206.742 54.4446ZM210.361 58.1136V62H209.087V55.4545H210.31V56.5199H210.391C210.542 56.1733 210.777 55.8949 211.098 55.6847C211.422 55.4744 211.83 55.3693 212.321 55.3693C212.767 55.3693 213.158 55.4631 213.493 55.6506C213.828 55.8352 214.088 56.1108 214.273 56.4773C214.458 56.8437 214.55 57.2969 214.55 57.8366V62H213.276V57.9901C213.276 57.5156 213.152 57.1449 212.905 56.8778C212.658 56.608 212.319 56.473 211.887 56.473C211.591 56.473 211.328 56.5369 211.098 56.6648C210.871 56.7926 210.691 56.9801 210.557 57.2273C210.426 57.4716 210.361 57.767 210.361 58.1136ZM219.08 62.1321C218.435 62.1321 217.88 61.9943 217.414 61.7188C216.951 61.4403 216.593 61.0497 216.34 60.5469C216.09 60.0412 215.965 59.4489 215.965 58.7699C215.965 58.0994 216.09 57.5085 216.34 56.9972C216.593 56.4858 216.945 56.0866 217.397 55.7997C217.851 55.5128 218.382 55.3693 218.99 55.3693C219.36 55.3693 219.718 55.4304 220.064 55.5526C220.411 55.6747 220.722 55.8665 220.998 56.1278C221.273 56.3892 221.49 56.7287 221.65 57.1463C221.809 57.5611 221.888 58.0653 221.888 58.6591V59.1108H216.685V58.1562H220.64C220.64 57.821 220.571 57.5241 220.435 57.2656C220.299 57.0043 220.107 56.7983 219.86 56.6477C219.615 56.4972 219.328 56.4219 218.999 56.4219C218.641 56.4219 218.328 56.5099 218.061 56.6861C217.797 56.8594 217.593 57.0866 217.448 57.3679C217.306 57.6463 217.235 57.9489 217.235 58.2756V59.0213C217.235 59.4588 217.311 59.831 217.465 60.1378C217.621 60.4446 217.838 60.679 218.117 60.8409C218.395 61 218.721 61.0795 219.093 61.0795C219.334 61.0795 219.554 61.0455 219.753 60.9773C219.952 60.9062 220.124 60.8011 220.269 60.6619C220.414 60.5227 220.525 60.3509 220.601 60.1463L221.807 60.3636C221.711 60.7187 221.537 61.0298 221.287 61.2969C221.04 61.5611 220.729 61.767 220.354 61.9148C219.982 62.0597 219.557 62.1321 219.08 62.1321Z" fill="#0F1537"/>
<defs>
<linearGradient id="paint0_linear_403_3583" x1="30" y1="22.295" x2="30" y2="2.42" gradientUnits="userSpaceOnUse">
<stop stop-color="#280529"/>
<stop offset="1" stop-color="#1B3F6B"/>
</linearGradient>
<linearGradient id="paint1_linear_403_3583" x1="39.1712" y1="-14.353" x2="39.1712" y2="29.837" gradientUnits="userSpaceOnUse">
<stop offset="0.59" stop-color="white"/>
<stop offset="0.66" stop-color="#FBFBFC"/>
<stop offset="0.72" stop-color="#F0F0F6"/>
<stop offset="0.78" stop-color="#DDDEEB"/>
<stop offset="0.83" stop-color="#C2C5DC"/>
<stop offset="0.89" stop-color="#A0A5C9"/>
<stop offset="0.93" stop-color="#878DBB"/>
</linearGradient>
<linearGradient id="paint2_linear_403_3583" x1="30.0001" y1="36.959" x2="30.0001" y2="6.05296" gradientUnits="userSpaceOnUse">
<stop offset="0.59" stop-color="white"/>
<stop offset="0.66" stop-color="#FBFBFC"/>
<stop offset="0.72" stop-color="#F0F0F6"/>
<stop offset="0.78" stop-color="#DDDEEB"/>
<stop offset="0.83" stop-color="#C2C5DC"/>
<stop offset="0.89" stop-color="#A0A5C9"/>
<stop offset="0.93" stop-color="#878DBB"/>
</linearGradient>
<linearGradient id="paint3_linear_403_3583" x1="29.9999" y1="39.59" x2="29.9999" y2="3.57198" gradientUnits="userSpaceOnUse">
<stop offset="0.59" stop-color="white"/>
<stop offset="0.66" stop-color="#FBFBFC"/>
<stop offset="0.72" stop-color="#F0F0F6"/>
<stop offset="0.78" stop-color="#DDDEEB"/>
<stop offset="0.83" stop-color="#C2C5DC"/>
<stop offset="0.89" stop-color="#A0A5C9"/>
<stop offset="0.93" stop-color="#878DBB"/>
</linearGradient>
<linearGradient id="paint4_linear_403_3583" x1="30.0001" y1="20.771" x2="30.0001" y2="2.31199" gradientUnits="userSpaceOnUse">
<stop stop-color="#989CD5"/>
<stop offset="1" stop-color="#C5C9DC"/>
</linearGradient>
<linearGradient id="paint5_linear_403_3583" x1="30" y1="20.7711" x2="30" y2="2.31207" gradientUnits="userSpaceOnUse">
<stop stop-color="#989CD5"/>
<stop offset="1" stop-color="#C5C9DC"/>
</linearGradient>
<linearGradient id="paint6_linear_403_3583" x1="30.0004" y1="2.00004" x2="30.0004" y2="2.31204" gradientUnits="userSpaceOnUse">
<stop stop-color="#989CD5"/>
<stop offset="1" stop-color="#C5C9DC"/>
</linearGradient>
<linearGradient id="paint7_linear_403_3583" x1="30" y1="22.445" x2="30" y2="69.863" gradientUnits="userSpaceOnUse">
<stop stop-color="#82DEFF"/>
<stop offset="0.21" stop-color="#58B2FE"/>
<stop offset="0.41" stop-color="#348DFE"/>
<stop offset="0.52" stop-color="#277FFE"/>
<stop offset="0.57" stop-color="#277AF5"/>
<stop offset="0.65" stop-color="#2970DF"/>
<stop offset="0.74" stop-color="#2C5EBB"/>
<stop offset="0.84" stop-color="#304588"/>
<stop offset="0.96" stop-color="#352548"/>
<stop offset="1" stop-color="#38192F"/>
</linearGradient>
<linearGradient id="paint8_linear_403_3583" x1="29.9998" y1="24.134" x2="29.9998" y2="68.033" gradientUnits="userSpaceOnUse">
<stop stop-color="#40BFE2"/>
<stop offset="0.08" stop-color="#3BB2E7"/>
<stop offset="0.37" stop-color="#2C8DF7"/>
<stop offset="0.52" stop-color="#277FFE"/>
<stop offset="0.57" stop-color="#277AF5"/>
<stop offset="0.65" stop-color="#2970DF"/>
<stop offset="0.74" stop-color="#2C5EBB"/>
<stop offset="0.84" stop-color="#304588"/>
<stop offset="0.96" stop-color="#352548"/>
<stop offset="1" stop-color="#38192F"/>
</linearGradient>
<linearGradient id="paint9_linear_403_3583" x1="29.9972" y1="36.827" x2="29.9972" y2="28.637" gradientUnits="userSpaceOnUse">
<stop stop-color="#82DEFF"/>
<stop offset="0.21" stop-color="#58B2FE"/>
<stop offset="0.41" stop-color="#348DFE"/>
<stop offset="0.52" stop-color="#277FFE"/>
<stop offset="0.57" stop-color="#277AF5"/>
<stop offset="0.65" stop-color="#2970DF"/>
<stop offset="0.74" stop-color="#2C5EBB"/>
<stop offset="0.84" stop-color="#304588"/>
<stop offset="0.96" stop-color="#352548"/>
<stop offset="1" stop-color="#38192F"/>
</linearGradient>
<linearGradient id="paint10_linear_403_3583" x1="29.9999" y1="29.837" x2="29.9999" y2="35.627" gradientUnits="userSpaceOnUse">
<stop stop-color="#38192F"/>
<stop offset="0.38" stop-color="#313D78"/>
<stop offset="0.8" stop-color="#2B62C6"/>
<stop offset="1" stop-color="#2972E5"/>
</linearGradient>
<linearGradient id="paint11_linear_403_3583" x1="19.245" y1="30.371" x2="19.245" y2="52.469" gradientUnits="userSpaceOnUse">
<stop stop-color="#989CD5"/>
<stop offset="1" stop-color="#C5C9DC"/>
</linearGradient>
<linearGradient id="paint12_linear_403_3583" x1="40.7551" y1="30.371" x2="40.7551" y2="52.469" gradientUnits="userSpaceOnUse">
<stop stop-color="#989CD5"/>
<stop offset="1" stop-color="#C5C9DC"/>
</linearGradient>
<linearGradient id="paint13_linear_403_3583" x1="29.9998" y1="50.864" x2="29.9998" y2="28.151" gradientUnits="userSpaceOnUse">
<stop offset="0.59" stop-color="white"/>
<stop offset="0.66" stop-color="#FBFBFC"/>
<stop offset="0.72" stop-color="#F0F0F6"/>
<stop offset="0.78" stop-color="#DDDEEB"/>
<stop offset="0.83" stop-color="#C2C5DC"/>
<stop offset="0.89" stop-color="#A0A5C9"/>
<stop offset="0.93" stop-color="#878DBB"/>
</linearGradient>
<linearGradient id="paint14_linear_403_3583" x1="29.9998" y1="31.5141" x2="29.9998" y2="51.575" gradientUnits="userSpaceOnUse">
<stop stop-color="#989CD5"/>
<stop offset="1" stop-color="#C5C9DC"/>
</linearGradient>
<linearGradient id="paint15_linear_403_3583" x1="29.9997" y1="31.514" x2="29.9997" y2="51.575" gradientUnits="userSpaceOnUse">
<stop stop-color="#989CD5"/>
<stop offset="1" stop-color="#C5C9DC"/>
</linearGradient>
<linearGradient id="paint16_linear_403_3583" x1="19.0742" y1="32.438" x2="19.0742" y2="43.637" gradientUnits="userSpaceOnUse">
<stop stop-color="#989CD5"/>
<stop offset="1" stop-color="#C5C9DC"/>
</linearGradient>
<linearGradient id="paint17_linear_403_3583" x1="29.1364" y1="32.459" x2="29.1364" y2="43.637" gradientUnits="userSpaceOnUse">
<stop stop-color="#989CD5"/>
<stop offset="1" stop-color="#C5C9DC"/>
</linearGradient>
<linearGradient id="paint18_linear_403_3583" x1="41.1781" y1="32.438" x2="41.1781" y2="43.637" gradientUnits="userSpaceOnUse">
<stop stop-color="#989CD5"/>
<stop offset="1" stop-color="#C5C9DC"/>
</linearGradient>
<clipPath id="clip0_403_3583">
<rect y="2" width="60" height="60" rx="4" fill="white"/>
</clipPath>
</defs>
</svg>
